<svg width="307" height="32" viewBox="0 0 307 32" fill="none" xmlns="http://www.w3.org/2000/svg">
<path d="M10.458 31.21L0.63 1.6H9.24L14.364 18.61L20.034 1.516H27.048L32.718 18.61L37.842 1.6H46.284L36.456 31.21H29.358L23.436 14.284L17.556 31.21H10.458ZM61.8258 31.546C58.2418 31.546 55.2598 30.398 52.8798 28.102C50.4998 25.778 49.3098 22.964 49.3098 19.66C49.3098 16.384 50.4998 13.584 52.8798 11.26C55.2878 8.936 58.2978 7.774 61.9098 7.774C65.4938 7.774 68.4758 8.936 70.8558 11.26C73.2358 13.556 74.4258 16.356 74.4258 19.66C74.4258 22.936 73.2218 25.736 70.8138 28.06C68.4338 30.384 65.4378 31.546 61.8258 31.546ZM61.9098 24.784C63.3378 24.784 64.4858 24.294 65.3538 23.314C66.2218 22.334 66.6558 21.116 66.6558 19.66C66.6558 18.26 66.1938 17.056 65.2698 16.048C64.3458 15.04 63.1978 14.536 61.8258 14.536C60.3978 14.536 59.2498 15.026 58.3818 16.006C57.5138 16.986 57.0798 18.204 57.0798 19.66C57.0798 21.06 57.5418 22.264 58.4658 23.272C59.3898 24.28 60.5378 24.784 61.9098 24.784ZM81.7963 31V8.278H89.7763V12.856C91.2323 9.412 93.6263 7.76 96.9583 7.9V16.3H96.2863C91.9463 16.3 89.7763 18.848 89.7763 23.944V31H81.7963ZM112.549 31.504C109.749 31.504 107.369 30.426 105.409 28.27C103.477 26.086 102.511 23.216 102.511 19.66C102.511 16.076 103.477 13.206 105.409 11.05C107.341 8.866 109.707 7.774 112.507 7.774C115.251 7.774 117.575 8.866 119.479 11.05V0.339999H127.459V31H119.479V27.976C117.547 30.328 115.237 31.504 112.549 31.504ZM111.667 23.356C112.591 24.336 113.697 24.826 114.985 24.826C116.273 24.826 117.365 24.336 118.261 23.356C119.157 22.376 119.605 21.116 119.605 19.576C119.605 18.092 119.157 16.874 118.261 15.922C117.365 14.942 116.273 14.452 114.985 14.452C113.669 14.452 112.563 14.942 111.667 15.922C110.771 16.902 110.323 18.148 110.323 19.66C110.323 21.144 110.771 22.376 111.667 23.356ZM151.844 31V1.6H175.364V8.74H159.992V13.738H173.894V20.5H159.992V31H151.844ZM182.785 31V8.278H190.765V31H182.785ZM182.617 6.22V0.339999H190.933V6.22H182.617ZM199.208 31V8.278H207.188V11.47C209.092 9.006 211.36 7.774 213.992 7.774C216.4 7.774 218.29 8.53 219.662 10.042C221.034 11.526 221.72 13.556 221.72 16.132V31H213.74V18.694C213.74 17.49 213.446 16.552 212.858 15.88C212.298 15.208 211.528 14.872 210.548 14.872C209.54 14.872 208.728 15.208 208.112 15.88C207.496 16.552 207.188 17.49 207.188 18.694V31H199.208ZM239.026 31.504C236.226 31.504 233.846 30.426 231.886 28.27C229.954 26.086 228.988 23.216 228.988 19.66C228.988 16.076 229.954 13.206 231.886 11.05C233.818 8.866 236.184 7.774 238.984 7.774C241.728 7.774 244.052 8.866 245.956 11.05V0.339999H253.936V31H245.956V27.976C244.024 30.328 241.714 31.504 239.026 31.504ZM238.144 23.356C239.068 24.336 240.174 24.826 241.462 24.826C242.75 24.826 243.842 24.336 244.738 23.356C245.634 22.376 246.082 21.116 246.082 19.576C246.082 18.092 245.634 16.874 244.738 15.922C243.842 14.942 242.75 14.452 241.462 14.452C240.146 14.452 239.04 14.942 238.144 15.922C237.248 16.902 236.8 18.148 236.8 19.66C236.8 21.144 237.248 22.376 238.144 23.356ZM273.466 31.546C269.882 31.546 266.956 30.454 264.688 28.27C262.42 26.086 261.286 23.216 261.286 19.66C261.286 16.3 262.364 13.486 264.52 11.218C266.676 8.922 269.42 7.774 272.752 7.774C276.476 7.774 279.318 8.95 281.278 11.302C283.238 13.654 284.218 16.622 284.218 20.206C284.218 20.934 284.204 21.48 284.176 21.844H268.972C269.616 24.336 271.254 25.582 273.886 25.582C275.678 25.582 277.358 24.812 278.926 23.272L283.336 26.926C280.9 30.006 277.61 31.546 273.466 31.546ZM268.846 17.77H276.742C276.602 16.51 276.182 15.516 275.482 14.788C274.782 14.032 273.886 13.654 272.794 13.654C271.758 13.654 270.89 14.032 270.19 14.788C269.518 15.516 269.07 16.51 268.846 17.77ZM291.64 31V8.278H299.62V12.856C301.076 9.412 303.47 7.76 306.802 7.9V16.3H306.13C301.79 16.3 299.62 18.848 299.62 23.944V31H291.64Z" fill="white"/>
</svg>
